<?xml version="1.0" encoding="utf-8"?>
<!-- Svg Vector Icons : http://www.onlinewebfonts.com/icon -->
<!DOCTYPE svg PUBLIC "-//W3C//DTD SVG 1.1//EN" "http://www.w3.org/Graphics/SVG/1.1/DTD/svg11.dtd">
<svg version="1.1" xmlns="http://www.w3.org/2000/svg" xmlns:xlink="http://www.w3.org/1999/xlink" x="0px" y="0px" viewBox="0 0 1000 1000" enable-background="new 0 0 1000 1000" xml:space="preserve">
<metadata> Svg Vector Icons : http://www.onlinewebfonts.com/icon </metadata>
<g><path d="M881.1,64.4H118.9C58.7,64.4,10,113.2,10,173.3v490c0,60.1,48.7,108.9,108.9,108.9h326.7v108.9H227.8v54.4h544.4v-54.4H554.4V772.2h326.7c60.1,0,108.9-48.7,108.9-108.9v-490C990,113.2,941.3,64.4,881.1,64.4z M230.2,547.6H175V275.4h55.2L230.2,547.6z M536.5,511.3c-23,24.2-54.4,36.3-94.4,36.3c-40.1,0-71.5-12.3-94.4-36.8c-22.8-24.5-34.2-57.6-34.2-99.3c0-42,11.4-75.2,34.2-99.6c22.8-24.4,54.3-36.6,94.4-36.6c40,0,71.4,12.1,94.4,36.4c23,24.3,34.4,57.5,34.4,99.8C571,453.9,559.5,487.1,536.5,511.3z M853.9,329.3h-86.1v218.3h-58.6V329.3H602.6l0.3-53.9h251V329.3z M444.8,337.5c21.2,0-62.2-15.4-62.2,76.4c0-8-7.4,76.2,62.2,76.2c-19.5,0,62,13.7,62-76.4C506.8,422.2,513.9,337.5,444.8,337.5z"/></g>
</svg>